PathFileType	4	(X/Y/Z)	Patient4_TMGait_0pt4_01_right_11.trc.trc
DataRate	CameraRate	NumFrames	NumMarkers	Units	OrigDataRate	OrigDataStartFrame	OrigNumFrames
76.502732240437	76.502732240437	6	33	mm	76.502732240437	106	       141
Frame#	Time	Sacral			L.Shoulder			Chest			R.Shoulder			Neck			R.ASIS			L.ASIS			R.Thigh.Superior			R.Thigh.Lateral			R.Thigh.Inferior			R.Patella			L.Thigh.Superior			L.Thigh.Lateral			L.Thigh.Inferior			L.Patella			L.Shank.Superior			L.Shank.Lateral			L.Shank.Inferior			R.Shank.Superior			R.Shank.Lateral			R.Shank.Inferior			R.Heel			R.Midfoot.Superior			R.Midfoot.Lateral			R.Toe			L.Heel			L.Midfoot.Lateral			L.Midfoot.Superior			L.Toe			L.Elbow			L.Wrist			R.Elbow			R.Wrist			
		X1	Y1	Z1	X2	Y2	Z2	X3	Y3	Z3	X4	Y4	Z4	X5	Y5	Z5	X6	Y6	Z6	X7	Y7	Z7	X8	Y8	Z8	X9	Y9	Z9	X10	Y10	Z10	X11	Y11	Z11	X12	Y12	Z12	X13	Y13	Z13	X14	Y14	Z14	X15	Y15	Z15	X16	Y16	Z16	X17	Y17	Z17	X18	Y18	Z18	X19	Y19	Z19	X20	Y20	Z20	X21	Y21	Z21	X22	Y22	Z22	X23	Y23	Z23	X24	Y24	Z24	X25	Y25	Z25	X26	Y26	Z26	X27	Y27	Z27	X28	Y28	Z28	X29	Y29	Z29	X30	Y30	Z30	X31	Y31	Z31	X32	Y32	Z32	X33	Y33	Z33	

106	15.372500000000	811.374904299121	1009.831507508164	442.442214299791	1007.121767149764	1429.700403396682	248.137989418408	1098.723131825771	1367.499068297412	417.738567059285	1007.980734494785	1450.160701322733	584.000750315722	989.915222042513	1499.689895310462	400.639769660889	1037.462284191378	952.096626736879	566.871521513298	1032.287479107761	965.915476940938	291.722283335511	1119.997520710854	779.362633331986	543.736556798804	1077.288282842997	659.161020368117	620.293762003831	1167.837579121136	618.213275317730	544.468221326034	1189.850270502467	513.020810600362	570.383306953086	1067.032561193975	747.927014420814	321.558878392071	968.051999658117	636.831492141134	266.611836514739	1047.205175401717	554.765993016992	328.841969207074	1041.949198567042	486.958800350646	340.474546730206	1013.235001318068	416.633627233397	334.727105963795	917.684402735653	304.264961976963	289.364090138443	967.871054054718	193.591548377408	363.241866787238	1127.671063546798	430.281801334795	577.771482433539	1018.232762816920	367.463363455437	640.472461737723	1026.219173777119	257.169739022986	592.338924367808	842.752360178925	149.400620278992	569.219093511299	1022.208031111207	138.105964939590	608.606215181700	916.576655850986	107.761956194341	642.010447016781	1113.116596539911	44.850873510021	631.657917087127	836.143994983421	39.278575593658	412.594746417718	909.343038104009	35.627409224738	331.129268892446	993.549188940214	95.974057800231	355.862002737310	1121.845094613363	40.976971494079	327.714271864370	1018.257291082106	1079.621253884076	124.786104104783	1183.013444946349	875.230974423485	122.533808197456	929.052421581005	1118.728236536229	719.441877188757	974.350995998122	863.076088974489	750.135171084269	
107	15.385571428571	810.523906443095	1010.034957341419	442.030441957153	1008.206884771266	1429.332392528975	248.042163643106	1098.504047380308	1367.361862618224	418.402869279916	1006.724055680857	1450.461674954428	583.830381774379	990.076691517342	1499.617777089910	400.320693300410	1036.039971515956	952.327050017126	567.530661834758	1032.845686207690	966.585695468652	292.122496048900	1119.037214571657	780.306470165496	543.767358018181	1077.436577245446	659.882447406852	620.436806549712	1167.262620133239	619.266776865621	543.855671751726	1191.061553339199	515.811369026668	569.693591555554	1064.495259106503	747.172312551358	322.967228336325	964.489767104151	637.018129101952	266.791035214511	1042.006669624766	554.195732520662	329.632929766121	1035.911714607978	486.751189200935	341.201960036671	1007.527906713774	416.657093755392	335.186437841202	912.375746321014	304.184514715072	289.530805343899	962.447587325195	193.569432197743	363.523429382841	1132.518656035399	431.580228470151	577.563963657348	1027.216133383345	363.366289012259	641.442911344107	1040.265242880967	253.580149021788	593.060759121853	862.307578884149	137.063954892787	571.567695657006	1042.479721174356	134.016144131856	609.256439873745	938.702934866392	98.994708903602	643.835825366617	1137.804329051614	45.236604963694	631.602895014123	830.872000971129	39.159452301868	412.616342347501	904.045357604008	35.595831765035	331.126672095135	988.233595545639	95.961297744913	355.926223479244	1116.563580765238	41.023956240692	327.705590374437	1021.835378889220	1079.393112750246	124.904548000641	1187.952248975334	876.080787596899	123.054598681776	920.728255546129	1121.483274216932	720.077530529379	960.318563234480	865.243360535202	752.592675959517	
108	15.398642857143	809.695164044742	1010.150148805108	441.747861359920	1009.355645443574	1428.863407003221	248.146021724420	1098.357828476727	1367.085144950607	419.234860067986	1005.567173227728	1450.624852380794	583.831463048594	990.342644273518	1499.435277035414	400.204903256819	1034.622893449990	952.396992808263	568.336069825689	1033.561321539073	967.288356296784	292.587154459733	1117.700445657686	780.777324069721	543.914777626059	1076.958057038149	660.243187503217	620.688296523783	1165.962775120468	619.779331993717	543.344113249168	1191.420439118694	518.262736068328	568.999920307790	1061.946148827538	746.362923905805	324.370297091122	960.898859509542	637.172113560642	266.999130160061	1036.773086853837	553.609680976272	330.440112954559	1029.873672907617	486.543463411212	341.931894374137	1001.812643575347	416.666858993082	335.674761910535	907.087749651590	304.085320070942	289.698901123039	957.023600881372	193.532225063776	363.827911729955	1136.844201389825	432.739046054441	577.391520947937	1036.270174281892	359.089929704455	642.565616003115	1054.605557233909	250.142542617691	593.834829950941	882.970898050713	124.828255576122	574.025758150746	1063.458606188919	130.238903667849	609.848565984254	961.855852265035	90.477824831088	645.639226531299	1163.113980044829	46.241746642764	631.341704964367	825.607142157647	39.031440468310	412.643928620072	898.745351849545	35.558752678697	331.130873053883	982.912195709338	95.945363699725	356.002404424567	1111.280433283698	41.069076334214	327.704117114975	1025.148468303530	1079.054431964365	125.258898780326	1192.512124579620	876.735629429064	123.880323154014	912.773504114409	1124.060913400962	720.568481095630	947.125158688121	867.392586990443	754.670785777951	
109	15.411714285714	808.899641406838	1010.182249850289	441.587086659045	1010.557369217365	1428.301648193966	248.458120615587	1098.289152522081	1366.668753621106	420.233831273146	1004.534517653910	1450.645897195929	584.020139408334	990.715862867863	1499.146628286003	400.305165529523	1033.231289961519	952.300174613385	569.275493678416	1034.385039512191	967.979152664281	293.113973421483	1115.985124067297	780.752276463701	544.194822958216	1075.821640110881	660.232674929408	621.074206835141	1163.962623451919	619.748373860064	542.986390201296	1190.925380807349	520.343949151199	568.331155148222	1059.403915538499	745.501815526963	325.727222922617	957.316960853135	637.288978808218	267.230458140617	1031.569091851055	553.011403327091	331.245551192598	1023.911709638279	486.327625606643	342.643283397901	996.143158834827	416.655211465394	336.178250293828	901.848504883645	303.974305261341	289.861484809372	951.617644081548	193.479945090424	364.144283352148	1140.606490655503	433.784458590786	577.274939888129	1045.304298577635	354.765410158312	643.797539183161	1069.091002762909	247.014537131243	594.618980131589	904.573162836615	112.991216752079	576.443941217859	1084.933225378628	126.973996924028	610.350753585146	985.795113216597	82.465675506679	647.303872197957	1188.746984786581	48.019769060180	630.878330891611	820.344910816391	38.901253310482	412.674741592809	893.443346261683	35.517005915482	331.140449745377	977.586210551722	95.925246799793	356.086713362146	1105.995029606207	41.110476301722	327.709273905669	1028.188940475010	1078.609401433757	125.843685971724	1196.682062091640	877.197081214402	125.002487771972	905.278902540503	1126.413582989361	720.920940441420	934.813120170955	869.429709446637	756.390585813733	
110	15.424785714286	808.151502777230	1010.135594551168	441.542600290172	1011.800098434985	1427.660705488826	248.985303717556	1098.300216231003	1366.117882025118	421.398533517419	1003.646992143467	1450.523828966834	584.413451952504	991.193673384714	1498.759932013747	400.632932158705	1031.887430522084	952.035624918582	570.336344654798	1035.251735191492	968.598248619149	293.709756871709	1113.909754217649	780.226351896432	544.627792910690	1074.032824234107	659.853017617630	621.621541010991	1161.319023803653	619.189482533055	542.828411187196	1189.610690364192	522.032915605979	567.716879631463	1056.892815337372	744.597435116081	327.017426247687	953.791806816205	637.365796171101	267.483283421633	1026.465605946843	552.405925486793	332.038647881008	1018.104406718304	486.094654820371	343.321658228472	990.576683216485	416.613997659040	336.685950058456	896.687751242862	303.858964745883	290.014824219665	946.249209437780	193.413044027574	364.461204484582	1143.774668832032	434.736095151692	577.233718864405	1054.197827554875	350.511684659169	645.086026626246	1083.530410835667	244.321806513572	595.367463846760	926.848678174697	101.818199164187	578.671064109795	1106.622536332139	124.374619154145	610.725394982483	1010.194528766940	75.166582564163	648.716730589306	1214.347429241720	50.660209092248	630.214935363044	815.080824646922	38.776295984176	412.706247032261	888.139811421829	35.472045521109	331.153643628449	972.257595851402	95.900264484793	356.175262260490	1100.707169286895	41.146733889053	327.720403941921	1030.949782076190	1078.067423976943	126.655311857227	1200.448860014347	877.469029046850	126.411109746057	898.327352236992	1128.496570816562	721.153401084645	923.429061390208	871.274319475052	757.776736496490	
111	15.437857142857	807.468353310272	1010.011109754673	441.611840431905	1013.068886145140	1426.958011553459	249.732418647019	1098.389262960035	1365.442726044083	422.727154020542	1002.917453240830	1450.260079185699	585.026642041721	991.767049739612	1498.285697403881	401.197751063075	1030.615872284015	951.607903430203	571.507162779517	1036.092576125030	969.078512463148	294.388252639540	1111.518012637538	779.216283513192	545.233958951870	1071.642296923020	659.119103776404	622.351824681777	1158.123232663760	618.137081907773	542.901300986455	1187.549632967324	523.317940657554	567.183741441859	1054.444290728790	743.662357141524	328.239549160334	950.379186323352	637.400520484914	267.760279694904	1021.536986039543	551.798412566362	332.815475113101	1012.528932032416	485.834787182839	343.960012796100	985.172127203990	416.534382265649	337.190455675011	891.635937534569	303.746782871818	290.158327065379	940.938282015937	193.331844234286	364.767784825648	1146.330789437051	435.600881066862	577.281806663390	1062.799555940508	346.427990091900	646.369826751528	1097.687078834251	242.145407391645	596.033269766255	949.422414311012	91.528803648246	580.565148183552	1128.166586069518	122.533220902589	610.932775397377	1034.632367792399	68.730553589195	649.777670161662	1239.494246820936	54.172591485134	629.354710055197	809.811731444454	38.664177081594	412.736167367969	882.835525538617	35.426139580093	331.168306992510	966.928900292584	95.870361780884	356.264206626412	1095.417054056020	41.176888554022	327.736721885294	1033.424408910550	1077.441843763815	127.691238969555	1203.797749432373	877.556860845175	128.094396260895	891.990894840679	1130.268005028028	721.294905967574	913.023724897286	872.857501040770	758.855448818003	
